<?xml version="1.0" standalone="no"?><!DOCTYPE svg PUBLIC "-//W3C//DTD SVG 1.1//EN" "http://www.w3.org/Graphics/SVG/1.1/DTD/svg11.dtd"><svg t="1601889853875" class="icon" viewBox="0 0 1024 1024" version="1.1" xmlns="http://www.w3.org/2000/svg" p-id="16733" xmlns:xlink="http://www.w3.org/1999/xlink" width="200" height="200"><defs><style type="text/css"></style></defs><path d="M679.455388 0.728139c-4.095272 0-22.387485-1.638109-68.527545 0H206.588028a136.509053 136.509053 0 0 0-136.509053 134.597926v754.076009a136.509053 136.509053 0 0 0 136.509053 134.597926h610.195467a136.509053 136.509053 0 0 0 136.509053-134.597926V269.923992zM277.0267 326.43874h247.354404a22.387485 22.387485 0 0 1 0 44.774969H276.753682a22.387485 22.387485 0 0 1 0-44.774969zM687.918949 792.480646H288.49346c-18.565231 0-33.308209-10.374688-33.308209-23.206539s15.289014-23.206539 33.308209-23.206539h399.425489c18.292213 0 33.308209 10.374688 33.308209 23.206539s-15.015996 23.206539-33.308209 23.206539z m0-232.611426H288.49346c-18.565231 0-33.308209-10.10167-33.308209-22.387485s16.108068-23.479557 33.308209-23.479557h399.425489c18.292213 0 33.308209 10.10167 33.308209 22.387485s-15.015996 22.660503-33.308209 22.660503z m59.790965-289.945228H752.62424c-31.943118 0-76.991106-30.30501-76.991106-67.162454V63.522304l212.954123 208.312814z" p-id="16734" fill="#d1d0d0"></path></svg>