<?xml version="1.0" standalone="no"?><!DOCTYPE svg PUBLIC "-//W3C//DTD SVG 1.1//EN" "http://www.w3.org/Graphics/SVG/1.1/DTD/svg11.dtd"><svg t="1601889198120" class="icon" viewBox="0 0 1024 1024" version="1.1" xmlns="http://www.w3.org/2000/svg" p-id="4541" xmlns:xlink="http://www.w3.org/1999/xlink" width="200" height="200"><defs><style type="text/css"></style></defs><path d="M512 274C303.3 274 64 526 64 526s239.3 252 448 252 448-252 448-252-239.3-252-448-252z m0 420c-92.7 0-168-75.2-168-168 0-92.7 75.3-168 168-168 92.8 0 168 75.3 168 168 0 92.8-75.2 168-168 168z m0-56c-61.8 0-112-50.2-112-112s50.2-112 112-112 112 50.2 112 112-50.2 112-112 112z" fill="#D1D0D0" p-id="4542"></path></svg>